{
	"asset":{
		"generator":"Khronos glTF Blender I/O v4.0.44",
		"version":"2.0"
	},
	"scene":0,
	"scenes":[
		{
			"name":"Scene",
			"nodes":[
				0,
				1,
				2,
				3,
				4,
				5,
				6,
				7,
				8,
				9,
				10,
				11,
				12
			]
		}
	],
	"nodes":[
		{
			"mesh":0,
			"name":"Door.008",
			"rotation":[
				0,
				0.798870861530304,
				0,
				0.6015025973320007
			],
			"scale":[
				0.13673514127731323,
				2.4017488956451416,
				1.4529646635055542
			],
			"translation":[
				69.32194519042969,
				26.947519302368164,
				-61.72257995605469
			]
		},
		{
			"mesh":1,
			"name":"Door.007",
			"rotation":[
				0,
				0.798870861530304,
				0,
				0.6015025973320007
			],
			"scale":[
				0.13673514127731323,
				2.4017488956451416,
				1.4529646635055542
			],
			"translation":[
				68.99182891845703,
				27.6664981842041,
				-64.29859161376953
			]
		},
		{
			"mesh":2,
			"name":"Door.006",
			"rotation":[
				0,
				0.798870861530304,
				0,
				0.6015025973320007
			],
			"scale":[
				0.13673514127731323,
				2.4017488956451416,
				1.4529646635055542
			],
			"translation":[
				63.64142608642578,
				27.62592124938965,
				-62.73492431640625
			]
		},
		{
			"mesh":3,
			"name":"Door.005",
			"rotation":[
				0,
				0.798870861530304,
				0,
				0.6015025973320007
			],
			"scale":[
				0.13673514127731323,
				2.4017488956451416,
				1.4529646635055542
			],
			"translation":[
				63.953338623046875,
				26.906938552856445,
				-60.15409469604492
			]
		},
		{
			"mesh":4,
			"name":"Door.004",
			"rotation":[
				0,
				0.798870861530304,
				0,
				0.6015025973320007
			],
			"scale":[
				0.13673514127731323,
				2.4017488956451416,
				1.4529646635055542
			],
			"translation":[
				57.919769287109375,
				27.23480224609375,
				-58.40044403076172
			]
		},
		{
			"mesh":5,
			"name":"Door.003",
			"rotation":[
				0,
				-0.28238600492477417,
				0,
				0.9593008756637573
			],
			"scale":[
				0.13673514127731323,
				2.4017488956451416,
				1.4529645442962646
			],
			"translation":[
				43.800506591796875,
				27.04792022705078,
				-37.45181655883789
			]
		},
		{
			"mesh":6,
			"name":"Door.002",
			"rotation":[
				0,
				0.9912648797035217,
				0,
				0.13188683986663818
			],
			"scale":[
				0.13673512637615204,
				2.4017488956451416,
				1.4529645442962646
			],
			"translation":[
				39.648414611816406,
				27.21516227722168,
				-59.378143310546875
			]
		},
		{
			"mesh":7,
			"name":"Door.001",
			"rotation":[
				0,
				0.6928799748420715,
				0,
				0.7210529446601868
			],
			"scale":[
				0.13673514127731323,
				2.4017488956451416,
				1.4529646635055542
			],
			"translation":[
				59.61778259277344,
				27.07809829711914,
				-61.00210189819336
			]
		},
		{
			"mesh":8,
			"name":"Door",
			"rotation":[
				0,
				-0.6963021159172058,
				0,
				0.7177488803863525
			],
			"scale":[
				0.13673515617847443,
				2.4017488956451416,
				1.4529649019241333
			],
			"translation":[
				50.97998046875,
				27.064504623413086,
				-59.39205551147461
			]
		},
		{
			"mesh":9,
			"name":"building",
			"rotation":[
				0,
				-0.7588790059089661,
				0,
				0.6512317061424255
			],
			"scale":[
				0.03518209233880043,
				0.0993865430355072,
				0.025690799579024315
			],
			"translation":[
				39.5315055847168,
				27.59909439086914,
				-43.473182678222656
			]
		},
		{
			"mesh":10,
			"name":"Bed 3",
			"rotation":[
				-0.7041392922401428,
				0.12369533628225327,
				0.0740625411272049,
				0.6952713131904602
			],
			"scale":[
				-0.04307900741696358,
				-1.646993637084961,
				-0.04311533644795418
			],
			"translation":[
				51.89975357055664,
				26.990339279174805,
				-62.54641342163086
			]
		},
		{
			"mesh":11,
			"name":"Bed 2",
			"rotation":[
				-0.07573685795068741,
				-0.6949751973152161,
				-0.7039610743522644,
				0.12534846365451813
			],
			"scale":[
				-0.043079014867544174,
				-1.6469935178756714,
				-0.04311533272266388
			],
			"translation":[
				60.84937286376953,
				26.97308921813965,
				-64.43968200683594
			]
		},
		{
			"mesh":12,
			"name":"Bed 1",
			"rotation":[
				-0.5519130229949951,
				-0.4020242691040039,
				-0.4434967041015625,
				0.5805851817131042
			],
			"scale":[
				-0.043079011142253876,
				-1.6469937562942505,
				-0.04311533644795418
			],
			"translation":[
				56.08635711669922,
				26.990339279174805,
				-66.33675384521484
			]
		}
	],
	"materials":[
		{
			"doubleSided":true,
			"name":"Door Wood",
			"pbrMetallicRoughness":{
				"baseColorFactor":[
					0.14765508472919464,
					0.03391323238611221,
					0.009347759187221527,
					1
				],
				"metallicFactor":0,
				"roughnessFactor":0.5
			}
		},
		{
			"doubleSided":true,
			"name":"Building",
			"pbrMetallicRoughness":{
				"baseColorFactor":[
					0.8001965880393982,
					0.49627161026000977,
					0.2948589026927948,
					1
				],
				"metallicFactor":0,
				"roughnessFactor":0.5
			}
		},
		{
			"doubleSided":true,
			"name":"floor",
			"pbrMetallicRoughness":{
				"baseColorFactor":[
					0.23419344425201416,
					0.22768260538578033,
					0.25271204113960266,
					1
				],
				"metallicFactor":0,
				"roughnessFactor":0.5
			}
		},
		{
			"doubleSided":true,
			"name":"Material.005",
			"pbrMetallicRoughness":{
				"baseColorFactor":[
					0,
					0.002238397253677249,
					0.15626531839370728,
					1
				],
				"metallicFactor":0,
				"roughnessFactor":0.5
			}
		}
	],
	"meshes":[
		{
			"name":"Cube.024",
			"primitives":[
				{
					"attributes":{
						"POSITION":0,
						"NORMAL":1,
						"TEXCOORD_0":2
					},
					"indices":3,
					"material":0
				}
			]
		},
		{
			"name":"Cube.023",
			"primitives":[
				{
					"attributes":{
						"POSITION":4,
						"NORMAL":5,
						"TEXCOORD_0":6
					},
					"indices":3,
					"material":0
				}
			]
		},
		{
			"name":"Cube.022",
			"primitives":[
				{
					"attributes":{
						"POSITION":7,
						"NORMAL":8,
						"TEXCOORD_0":9
					},
					"indices":3,
					"material":0
				}
			]
		},
		{
			"name":"Cube.021",
			"primitives":[
				{
					"attributes":{
						"POSITION":10,
						"NORMAL":11,
						"TEXCOORD_0":12
					},
					"indices":3,
					"material":0
				}
			]
		},
		{
			"name":"Cube.020",
			"primitives":[
				{
					"attributes":{
						"POSITION":13,
						"NORMAL":14,
						"TEXCOORD_0":15
					},
					"indices":3,
					"material":0
				}
			]
		},
		{
			"name":"Cube.019",
			"primitives":[
				{
					"attributes":{
						"POSITION":16,
						"NORMAL":17,
						"TEXCOORD_0":18
					},
					"indices":3,
					"material":0
				}
			]
		},
		{
			"name":"Cube.018",
			"primitives":[
				{
					"attributes":{
						"POSITION":19,
						"NORMAL":20,
						"TEXCOORD_0":21
					},
					"indices":3,
					"material":0
				}
			]
		},
		{
			"name":"Cube.017",
			"primitives":[
				{
					"attributes":{
						"POSITION":22,
						"NORMAL":23,
						"TEXCOORD_0":24
					},
					"indices":3,
					"material":0
				}
			]
		},
		{
			"name":"Cube.014",
			"primitives":[
				{
					"attributes":{
						"POSITION":25,
						"NORMAL":26,
						"TEXCOORD_0":27
					},
					"indices":3,
					"material":0
				}
			]
		},
		{
			"name":"Cube.006",
			"primitives":[
				{
					"attributes":{
						"COLOR_0":28,
						"POSITION":29,
						"NORMAL":30,
						"TEXCOORD_0":31
					},
					"indices":32,
					"material":1
				},
				{
					"attributes":{
						"COLOR_0":33,
						"POSITION":34,
						"NORMAL":35,
						"TEXCOORD_0":36
					},
					"indices":37,
					"material":2
				}
			]
		},
		{
			"name":"Cube.016",
			"primitives":[
				{
					"attributes":{
						"POSITION":38,
						"NORMAL":39,
						"TEXCOORD_0":40
					},
					"indices":41,
					"material":0
				},
				{
					"attributes":{
						"POSITION":42,
						"NORMAL":43,
						"TEXCOORD_0":44
					},
					"indices":45,
					"material":3
				}
			]
		},
		{
			"name":"Cube.010",
			"primitives":[
				{
					"attributes":{
						"POSITION":46,
						"NORMAL":47,
						"TEXCOORD_0":48
					},
					"indices":41,
					"material":0
				},
				{
					"attributes":{
						"POSITION":49,
						"NORMAL":50,
						"TEXCOORD_0":51
					},
					"indices":45,
					"material":3
				}
			]
		},
		{
			"name":"Cube.015",
			"primitives":[
				{
					"attributes":{
						"POSITION":52,
						"NORMAL":53,
						"TEXCOORD_0":54
					},
					"indices":41,
					"material":0
				},
				{
					"attributes":{
						"POSITION":55,
						"NORMAL":56,
						"TEXCOORD_0":57
					},
					"indices":45,
					"material":3
				}
			]
		}
	],
	"accessors":[
		{
			"bufferView":0,
			"componentType":5126,
			"count":504,
			"max":[
				1.4329776763916016,
				1,
				1
			],
			"min":[
				-1.534313440322876,
				-1,
				-1
			],
			"type":"VEC3"
		},
		{
			"bufferView":1,
			"componentType":5126,
			"count":504,
			"type":"VEC3"
		},
		{
			"bufferView":2,
			"componentType":5126,
			"count":504,
			"type":"VEC2"
		},
		{
			"bufferView":3,
			"componentType":5123,
			"count":1356,
			"type":"SCALAR"
		},
		{
			"bufferView":4,
			"componentType":5126,
			"count":504,
			"max":[
				1.4329776763916016,
				1,
				1
			],
			"min":[
				-1.534313440322876,
				-1,
				-1
			],
			"type":"VEC3"
		},
		{
			"bufferView":5,
			"componentType":5126,
			"count":504,
			"type":"VEC3"
		},
		{
			"bufferView":6,
			"componentType":5126,
			"count":504,
			"type":"VEC2"
		},
		{
			"bufferView":7,
			"componentType":5126,
			"count":504,
			"max":[
				1.4329776763916016,
				1,
				1
			],
			"min":[
				-1.534313440322876,
				-1,
				-1
			],
			"type":"VEC3"
		},
		{
			"bufferView":8,
			"componentType":5126,
			"count":504,
			"type":"VEC3"
		},
		{
			"bufferView":9,
			"componentType":5126,
			"count":504,
			"type":"VEC2"
		},
		{
			"bufferView":10,
			"componentType":5126,
			"count":504,
			"max":[
				1.4329776763916016,
				1,
				1
			],
			"min":[
				-1.534313440322876,
				-1,
				-1
			],
			"type":"VEC3"
		},
		{
			"bufferView":11,
			"componentType":5126,
			"count":504,
			"type":"VEC3"
		},
		{
			"bufferView":12,
			"componentType":5126,
			"count":504,
			"type":"VEC2"
		},
		{
			"bufferView":13,
			"componentType":5126,
			"count":504,
			"max":[
				1.4329776763916016,
				1,
				1
			],
			"min":[
				-1.534313440322876,
				-1,
				-1
			],
			"type":"VEC3"
		},
		{
			"bufferView":14,
			"componentType":5126,
			"count":504,
			"type":"VEC3"
		},
		{
			"bufferView":15,
			"componentType":5126,
			"count":504,
			"type":"VEC2"
		},
		{
			"bufferView":16,
			"componentType":5126,
			"count":504,
			"max":[
				1.4329776763916016,
				1,
				1
			],
			"min":[
				-1.534313440322876,
				-1,
				-1
			],
			"type":"VEC3"
		},
		{
			"bufferView":17,
			"componentType":5126,
			"count":504,
			"type":"VEC3"
		},
		{
			"bufferView":18,
			"componentType":5126,
			"count":504,
			"type":"VEC2"
		},
		{
			"bufferView":19,
			"componentType":5126,
			"count":504,
			"max":[
				1.4329776763916016,
				1,
				1
			],
			"min":[
				-1.534313440322876,
				-1,
				-1
			],
			"type":"VEC3"
		},
		{
			"bufferView":20,
			"componentType":5126,
			"count":504,
			"type":"VEC3"
		},
		{
			"bufferView":21,
			"componentType":5126,
			"count":504,
			"type":"VEC2"
		},
		{
			"bufferView":22,
			"componentType":5126,
			"count":504,
			"max":[
				1.4329776763916016,
				1,
				1
			],
			"min":[
				-1.534313440322876,
				-1,
				-1
			],
			"type":"VEC3"
		},
		{
			"bufferView":23,
			"componentType":5126,
			"count":504,
			"type":"VEC3"
		},
		{
			"bufferView":24,
			"componentType":5126,
			"count":504,
			"type":"VEC2"
		},
		{
			"bufferView":25,
			"componentType":5126,
			"count":504,
			"max":[
				1.4329776763916016,
				1,
				1
			],
			"min":[
				-1.534313440322876,
				-1,
				-1
			],
			"type":"VEC3"
		},
		{
			"bufferView":26,
			"componentType":5126,
			"count":504,
			"type":"VEC3"
		},
		{
			"bufferView":27,
			"componentType":5126,
			"count":504,
			"type":"VEC2"
		},
		{
			"bufferView":28,
			"componentType":5123,
			"count":1138,
			"normalized":true,
			"type":"VEC4"
		},
		{
			"bufferView":29,
			"componentType":5126,
			"count":1138,
			"max":[
				117.1328125,
				31.002056121826172,
				936.8773193359375
			],
			"min":[
				-902.3054809570312,
				-47.113494873046875,
				-1204.15673828125
			],
			"type":"VEC3"
		},
		{
			"bufferView":30,
			"componentType":5126,
			"count":1138,
			"type":"VEC3"
		},
		{
			"bufferView":31,
			"componentType":5126,
			"count":1138,
			"type":"VEC2"
		},
		{
			"bufferView":32,
			"componentType":5123,
			"count":1818,
			"type":"SCALAR"
		},
		{
			"bufferView":33,
			"componentType":5123,
			"count":38,
			"normalized":true,
			"type":"VEC4"
		},
		{
			"bufferView":34,
			"componentType":5126,
			"count":38,
			"max":[
				117.1328125,
				-28.533353805541992,
				936.8773193359375
			],
			"min":[
				-900.6828002929688,
				-30.292266845703125,
				-1202.2650146484375
			],
			"type":"VEC3"
		},
		{
			"bufferView":35,
			"componentType":5126,
			"count":38,
			"type":"VEC3"
		},
		{
			"bufferView":36,
			"componentType":5126,
			"count":38,
			"type":"VEC2"
		},
		{
			"bufferView":37,
			"componentType":5123,
			"count":54,
			"type":"SCALAR"
		},
		{
			"bufferView":38,
			"componentType":5126,
			"count":512,
			"max":[
				1.3530197143554688,
				1.0297080278396606,
				59.60132598876953
			],
			"min":[
				-50.534584045410156,
				-1.0075078010559082,
				-14.840024948120117
			],
			"type":"VEC3"
		},
		{
			"bufferView":39,
			"componentType":5126,
			"count":512,
			"type":"VEC3"
		},
		{
			"bufferView":40,
			"componentType":5126,
			"count":512,
			"type":"VEC2"
		},
		{
			"bufferView":41,
			"componentType":5123,
			"count":720,
			"type":"SCALAR"
		},
		{
			"bufferView":42,
			"componentType":5126,
			"count":38,
			"max":[
				-1.3535594940185547,
				1.0252593755722046,
				52.26308822631836
			],
			"min":[
				-48.809722900390625,
				-1.008882761001587,
				0.13779067993164062
			],
			"type":"VEC3"
		},
		{
			"bufferView":43,
			"componentType":5126,
			"count":38,
			"type":"VEC3"
		},
		{
			"bufferView":44,
			"componentType":5126,
			"count":38,
			"type":"VEC2"
		},
		{
			"bufferView":45,
			"componentType":5123,
			"count":72,
			"type":"SCALAR"
		},
		{
			"bufferView":46,
			"componentType":5126,
			"count":512,
			"max":[
				1.3530197143554688,
				1.0297080278396606,
				59.60132598876953
			],
			"min":[
				-50.534584045410156,
				-1.0075078010559082,
				-14.840024948120117
			],
			"type":"VEC3"
		},
		{
			"bufferView":47,
			"componentType":5126,
			"count":512,
			"type":"VEC3"
		},
		{
			"bufferView":48,
			"componentType":5126,
			"count":512,
			"type":"VEC2"
		},
		{
			"bufferView":49,
			"componentType":5126,
			"count":38,
			"max":[
				-1.3535594940185547,
				1.0252593755722046,
				52.26308822631836
			],
			"min":[
				-48.809722900390625,
				-1.008882761001587,
				0.13779067993164062
			],
			"type":"VEC3"
		},
		{
			"bufferView":50,
			"componentType":5126,
			"count":38,
			"type":"VEC3"
		},
		{
			"bufferView":51,
			"componentType":5126,
			"count":38,
			"type":"VEC2"
		},
		{
			"bufferView":52,
			"componentType":5126,
			"count":512,
			"max":[
				1.3530197143554688,
				1.0297080278396606,
				59.60132598876953
			],
			"min":[
				-50.534584045410156,
				-1.0075078010559082,
				-14.840024948120117
			],
			"type":"VEC3"
		},
		{
			"bufferView":53,
			"componentType":5126,
			"count":512,
			"type":"VEC3"
		},
		{
			"bufferView":54,
			"componentType":5126,
			"count":512,
			"type":"VEC2"
		},
		{
			"bufferView":55,
			"componentType":5126,
			"count":38,
			"max":[
				-1.3535594940185547,
				1.0252593755722046,
				52.26308822631836
			],
			"min":[
				-48.809722900390625,
				-1.008882761001587,
				0.13779067993164062
			],
			"type":"VEC3"
		},
		{
			"bufferView":56,
			"componentType":5126,
			"count":38,
			"type":"VEC3"
		},
		{
			"bufferView":57,
			"componentType":5126,
			"count":38,
			"type":"VEC2"
		}
	],
	"bufferViews":[
		{
			"buffer":0,
			"byteLength":6048,
			"byteOffset":0,
			"target":34962
		},
		{
			"buffer":0,
			"byteLength":6048,
			"byteOffset":6048,
			"target":34962
		},
		{
			"buffer":0,
			"byteLength":4032,
			"byteOffset":12096,
			"target":34962
		},
		{
			"buffer":0,
			"byteLength":2712,
			"byteOffset":16128,
			"target":34963
		},
		{
			"buffer":0,
			"byteLength":6048,
			"byteOffset":18840,
			"target":34962
		},
		{
			"buffer":0,
			"byteLength":6048,
			"byteOffset":24888,
			"target":34962
		},
		{
			"buffer":0,
			"byteLength":4032,
			"byteOffset":30936,
			"target":34962
		},
		{
			"buffer":0,
			"byteLength":6048,
			"byteOffset":34968,
			"target":34962
		},
		{
			"buffer":0,
			"byteLength":6048,
			"byteOffset":41016,
			"target":34962
		},
		{
			"buffer":0,
			"byteLength":4032,
			"byteOffset":47064,
			"target":34962
		},
		{
			"buffer":0,
			"byteLength":6048,
			"byteOffset":51096,
			"target":34962
		},
		{
			"buffer":0,
			"byteLength":6048,
			"byteOffset":57144,
			"target":34962
		},
		{
			"buffer":0,
			"byteLength":4032,
			"byteOffset":63192,
			"target":34962
		},
		{
			"buffer":0,
			"byteLength":6048,
			"byteOffset":67224,
			"target":34962
		},
		{
			"buffer":0,
			"byteLength":6048,
			"byteOffset":73272,
			"target":34962
		},
		{
			"buffer":0,
			"byteLength":4032,
			"byteOffset":79320,
			"target":34962
		},
		{
			"buffer":0,
			"byteLength":6048,
			"byteOffset":83352,
			"target":34962
		},
		{
			"buffer":0,
			"byteLength":6048,
			"byteOffset":89400,
			"target":34962
		},
		{
			"buffer":0,
			"byteLength":4032,
			"byteOffset":95448,
			"target":34962
		},
		{
			"buffer":0,
			"byteLength":6048,
			"byteOffset":99480,
			"target":34962
		},
		{
			"buffer":0,
			"byteLength":6048,
			"byteOffset":105528,
			"target":34962
		},
		{
			"buffer":0,
			"byteLength":4032,
			"byteOffset":111576,
			"target":34962
		},
		{
			"buffer":0,
			"byteLength":6048,
			"byteOffset":115608,
			"target":34962
		},
		{
			"buffer":0,
			"byteLength":6048,
			"byteOffset":121656,
			"target":34962
		},
		{
			"buffer":0,
			"byteLength":4032,
			"byteOffset":127704,
			"target":34962
		},
		{
			"buffer":0,
			"byteLength":6048,
			"byteOffset":131736,
			"target":34962
		},
		{
			"buffer":0,
			"byteLength":6048,
			"byteOffset":137784,
			"target":34962
		},
		{
			"buffer":0,
			"byteLength":4032,
			"byteOffset":143832,
			"target":34962
		},
		{
			"buffer":0,
			"byteLength":9104,
			"byteOffset":147864,
			"target":34962
		},
		{
			"buffer":0,
			"byteLength":13656,
			"byteOffset":156968,
			"target":34962
		},
		{
			"buffer":0,
			"byteLength":13656,
			"byteOffset":170624,
			"target":34962
		},
		{
			"buffer":0,
			"byteLength":9104,
			"byteOffset":184280,
			"target":34962
		},
		{
			"buffer":0,
			"byteLength":3636,
			"byteOffset":193384,
			"target":34963
		},
		{
			"buffer":0,
			"byteLength":304,
			"byteOffset":197020,
			"target":34962
		},
		{
			"buffer":0,
			"byteLength":456,
			"byteOffset":197324,
			"target":34962
		},
		{
			"buffer":0,
			"byteLength":456,
			"byteOffset":197780,
			"target":34962
		},
		{
			"buffer":0,
			"byteLength":304,
			"byteOffset":198236,
			"target":34962
		},
		{
			"buffer":0,
			"byteLength":108,
			"byteOffset":198540,
			"target":34963
		},
		{
			"buffer":0,
			"byteLength":6144,
			"byteOffset":198648,
			"target":34962
		},
		{
			"buffer":0,
			"byteLength":6144,
			"byteOffset":204792,
			"target":34962
		},
		{
			"buffer":0,
			"byteLength":4096,
			"byteOffset":210936,
			"target":34962
		},
		{
			"buffer":0,
			"byteLength":1440,
			"byteOffset":215032,
			"target":34963
		},
		{
			"buffer":0,
			"byteLength":456,
			"byteOffset":216472,
			"target":34962
		},
		{
			"buffer":0,
			"byteLength":456,
			"byteOffset":216928,
			"target":34962
		},
		{
			"buffer":0,
			"byteLength":304,
			"byteOffset":217384,
			"target":34962
		},
		{
			"buffer":0,
			"byteLength":144,
			"byteOffset":217688,
			"target":34963
		},
		{
			"buffer":0,
			"byteLength":6144,
			"byteOffset":217832,
			"target":34962
		},
		{
			"buffer":0,
			"byteLength":6144,
			"byteOffset":223976,
			"target":34962
		},
		{
			"buffer":0,
			"byteLength":4096,
			"byteOffset":230120,
			"target":34962
		},
		{
			"buffer":0,
			"byteLength":456,
			"byteOffset":234216,
			"target":34962
		},
		{
			"buffer":0,
			"byteLength":456,
			"byteOffset":234672,
			"target":34962
		},
		{
			"buffer":0,
			"byteLength":304,
			"byteOffset":235128,
			"target":34962
		},
		{
			"buffer":0,
			"byteLength":6144,
			"byteOffset":235432,
			"target":34962
		},
		{
			"buffer":0,
			"byteLength":6144,
			"byteOffset":241576,
			"target":34962
		},
		{
			"buffer":0,
			"byteLength":4096,
			"byteOffset":247720,
			"target":34962
		},
		{
			"buffer":0,
			"byteLength":456,
			"byteOffset":251816,
			"target":34962
		},
		{
			"buffer":0,
			"byteLength":456,
			"byteOffset":252272,
			"target":34962
		},
		{
			"buffer":0,
			"byteLength":304,
			"byteOffset":252728,
			"target":34962
		}
	],
	"buffers":[
		{
			"byteLength":253032,
			"uri":"exterior.bin"
		}
	]
}
